# xmcd
#
# Track frame offsets:
#	150
#	16083
#	31812
#	57035
#	71396
#	89186
#	104647
#	125049
#	140543
#	168066
#	182059
#	201904
#
# Disc length: 2911 seconds
#
# Revision: 1
# Processed by: cddbd v1.5.2PL0 Copyright (c) Steve Scherf et al.
# Submitted via: audiograbber 1.83.01
#
DISCID=a50b5d0c
DTITLE=Cory Morrow - Brand New Me
DYEAR=2010
DGENRE=Country
TTITLE0=Lead Me On
TTITLE1=Brand New Me
TTITLE2=The Road Less Traveled
TTITLE3=Lonesome
TTITLE4=Second Chance
TTITLE5=Running From The Rain
TTITLE6=The Way I Do
TTITLE7=Fade Away
TTITLE8=Never Made It To My Lips
TTITLE9=A Love Like This
TTITLE10=Doctor My Eyes
TTITLE11=Leaving A Bad Feeling Behind
EXTD=
EXTT0=
EXTT1=
EXTT2=
EXTT3=
EXTT4=
EXTT5=
EXTT6=
EXTT7=
EXTT8=
EXTT9=
EXTT10=
EXTT11=
PLAYORDER=
